<svg xmlns="http://www.w3.org/2000/svg" xmlns:xlink="http://www.w3.org/1999/xlink" viewBox="0 0 173.5 57.58"><defs><style>.cls-1{isolation:isolate;}.cls-2,.cls-3{fill:#0c3246;}.cls-3,.cls-4,.cls-5{fill-rule:evenodd;}.cls-4{mix-blend-mode:multiply;fill:url(#linear-gradient);}.cls-5{fill:#fff;}</style><linearGradient id="linear-gradient" x1="42.05" y1="49.32" x2="26.55" y2="18.9" gradientUnits="userSpaceOnUse"><stop offset="0" stop-color="#fff"/><stop offset="1"/></linearGradient></defs><title>logoAsset 5</title><g class="cls-1"><g id="Layer_2" data-name="Layer 2"><g id="Layer_1-2" data-name="Layer 1"><path class="cls-2" d="M74.44,31.19A8.8,8.8,0,0,0,78,32c1.22,0,1.7-.42,1.7-.92s-.59-.8-2.2-1.12c-2.23-.46-3.86-1.13-3.86-3s1.55-2.94,4-2.94a11.11,11.11,0,0,1,4,.78l-.88,1.81A10.31,10.31,0,0,0,77.54,26c-1,0-1.53.34-1.53.85s.63.78,2.29,1.1c2.41.46,3.8,1.24,3.8,3s-1.51,3-4.16,3A9.72,9.72,0,0,1,73.45,33Z"/><path class="cls-2" d="M87.31,26.22v3.4c0,1.72.31,2.21,1.64,2.21a12,12,0,0,0,1.22-.09v1.84a7,7,0,0,1-2.41.35,2.88,2.88,0,0,1-3.13-3V26.22H83.17v-2h1.47V20.45h2.67v3.73h2.9v2Z"/><path class="cls-2" d="M102.63,29c0,2.74-2.54,5-5.67,5s-5.67-2.21-5.67-5,2.54-5,5.67-5S102.63,26.22,102.63,29ZM100,29a3.07,3.07,0,0,0-6.11,0A3.07,3.07,0,0,0,100,29Z"/><path class="cls-2" d="M107,25.53A4,4,0,0,1,110.27,24a2.18,2.18,0,0,1,.65.11v2.67a8.18,8.18,0,0,0-1.28-.14A2.39,2.39,0,0,0,107,29.16V33.8h-2.67V24.18H107Z"/><path class="cls-2" d="M123.24,24.18,119,34.31c-.92,2.18-3.36,2.81-5.54,2.81-.34,0-.65,0-.94,0l.32-1.86h.29c1.43,0,2.71-.34,3.3-1.45h-.23l-4-9.61h2.79l2.73,6.53h.19l2.67-6.53Z"/><path class="cls-2" d="M135.88,29a5,5,0,0,1-5.25,5,6.3,6.3,0,0,1-3-.76v.6H125V20.45h2.65v4.28a6.72,6.72,0,0,1,3-.73A5,5,0,0,1,135.88,29Zm-2.62,0a2.87,2.87,0,0,0-3.11-2.76,4.16,4.16,0,0,0-2.54.81v3.86a4.1,4.1,0,0,0,2.54.83A2.83,2.83,0,0,0,133.26,29Z"/><path class="cls-2" d="M148.62,29c0,2.74-2.54,5-5.67,5s-5.67-2.21-5.67-5,2.54-5,5.67-5S148.62,26.22,148.62,29ZM146,29a3.07,3.07,0,0,0-6.11,0A3.07,3.07,0,0,0,146,29Z"/><path class="cls-2" d="M161.33,29c0,2.74-2.54,5-5.67,5S150,31.73,150,29s2.54-5,5.67-5S161.33,26.22,161.33,29Zm-2.62,0a3.07,3.07,0,0,0-6.11,0,3.07,3.07,0,0,0,6.11,0Z"/><path class="cls-2" d="M173.5,33.8h-2.94l-2.65-3.93-2,1.79V33.8h-2.65V20.45h2.65v7.86l4.43-4.12h3.11l-3.78,3.75Z"/><path class="cls-3" d="M0,16.52V41.06a4.25,4.25,0,0,0,2.12,3.68L23.38,57a4.25,4.25,0,0,0,4.25,0L48.88,44.74A4.25,4.25,0,0,0,51,41.06V16.52a4.25,4.25,0,0,0-2.12-3.68L27.62.57a4.25,4.25,0,0,0-4.25,0L2.12,12.84A4.25,4.25,0,0,0,0,16.52Z"/><path class="cls-4" d="M29.07,29.6c-1.78,2.77-4.83,7.3-8.7,7.52Q19.7,39.58,19.15,42c-.76.42-1.56,1-2.3,1.41l16.29,10.4,15.62-9.12a5,5,0,0,0,2.12-3.68c.06-2.33,0-18,0-18L35.93,14.12a5.5,5.5,0,0,1-.27,1.93c-.11.42-.26.87-.44,1.35s-.46,1.21-.75,1.87h0l-.15.34h0a6.38,6.38,0,0,1-2,2.14,19,19,0,0,1-3.74,2q2.06-.44,4.17-.79h0c-.69,1.37-1.44,2.77-2.21,4.13h0A11,11,0,0,1,25.66,30s.87.41,3.41-.37"/><path class="cls-5" d="M36,14.12a5.5,5.5,0,0,1-.27,1.93c-.11.42-.26.87-.44,1.35s-.46,1.21-.75,1.87h0l-.15.34h0a6.38,6.38,0,0,1-2,2.14,19,19,0,0,1-3.74,2q2.06-.44,4.17-.79h0c-.69,1.37-1.44,2.77-2.21,4.13h0A11,11,0,0,1,25.68,30s.87.41,3.41-.37c-1.78,2.77-4.83,7.3-8.7,7.52q-.67,2.46-1.21,4.92c-.76.42-1.56,1-2.3,1.41.62-2.08,1.38-4.29,2.18-6.35q1.42-3.66,3.21-7.27a76.41,76.41,0,0,0-4.55,7,3.86,3.86,0,0,1-2.52-3.2,9.46,9.46,0,0,1,1.33-6.7c1,1.58,2.12,1.54,2.12,1.54a4.56,4.56,0,0,1,.22-4.74h0a25.29,25.29,0,0,1,3.78-3.34l.21.39.77,1.46A13.87,13.87,0,0,1,24,20.1,2.15,2.15,0,0,1,24.64,19h0a39.61,39.61,0,0,1,5.66-2.9l.14-.06q1.31-.55,2.77-1.05Q34.52,14.54,36,14.12Z"/></g></g></g></svg>