<svg xmlns="http://www.w3.org/2000/svg" xmlns:xlink="http://www.w3.org/1999/xlink" viewBox="0 0 51 57.58"><defs><style>.cls-1{isolation:isolate;}.cls-2{fill:#0c3246;}.cls-2,.cls-3,.cls-4{fill-rule:evenodd;}.cls-3{mix-blend-mode:multiply;fill:url(#linear-gradient);}.cls-4{fill:#fff;}</style><linearGradient id="linear-gradient" x1="42.05" y1="49.32" x2="26.55" y2="18.9" gradientUnits="userSpaceOnUse"><stop offset="0" stop-color="#fff"/><stop offset="1"/></linearGradient></defs><title>logoAsset 1</title><g class="cls-1"><g id="Layer_2" data-name="Layer 2"><g id="Layer_1-2" data-name="Layer 1"><path class="cls-2" d="M0,16.52V41.06a4.25,4.25,0,0,0,2.12,3.68L23.38,57a4.25,4.25,0,0,0,4.25,0L48.88,44.74A4.25,4.25,0,0,0,51,41.06V16.52a4.25,4.25,0,0,0-2.12-3.68L27.62.57a4.25,4.25,0,0,0-4.25,0L2.12,12.84A4.25,4.25,0,0,0,0,16.52Z"/><path class="cls-3" d="M29.07,29.6c-1.78,2.77-4.83,7.3-8.7,7.52Q19.7,39.58,19.15,42c-.76.42-1.56,1-2.3,1.41l16.29,10.4,15.62-9.12a5,5,0,0,0,2.12-3.68c.06-2.33,0-18,0-18L35.93,14.12a5.5,5.5,0,0,1-.27,1.93c-.11.42-.26.87-.44,1.35s-.46,1.21-.75,1.87h0l-.15.34h0a6.38,6.38,0,0,1-2,2.14,19,19,0,0,1-3.74,2q2.06-.44,4.17-.79h0c-.69,1.37-1.44,2.77-2.21,4.13h0A11,11,0,0,1,25.66,30s.87.41,3.41-.37"/><path class="cls-4" d="M36,14.12a5.5,5.5,0,0,1-.27,1.93c-.11.42-.26.87-.44,1.35s-.46,1.21-.75,1.87h0l-.15.34h0a6.38,6.38,0,0,1-2,2.14,19,19,0,0,1-3.74,2q2.06-.44,4.17-.79h0c-.69,1.37-1.44,2.77-2.21,4.13h0A11,11,0,0,1,25.68,30s.87.41,3.41-.37c-1.78,2.77-4.83,7.3-8.7,7.52q-.67,2.46-1.21,4.92c-.76.42-1.56,1-2.3,1.41.62-2.08,1.38-4.29,2.18-6.35q1.42-3.66,3.21-7.27a76.41,76.41,0,0,0-4.55,7,3.86,3.86,0,0,1-2.52-3.2,9.46,9.46,0,0,1,1.33-6.7c1,1.58,2.12,1.54,2.12,1.54a4.56,4.56,0,0,1,.22-4.74h0a25.29,25.29,0,0,1,3.78-3.34l.21.39.77,1.46A13.87,13.87,0,0,1,24,20.1,2.15,2.15,0,0,1,24.64,19h0a39.61,39.61,0,0,1,5.66-2.9l.14-.06q1.31-.55,2.77-1.05Q34.52,14.54,36,14.12Z"/></g></g></g></svg>